<?xml version="1.0" standalone="no"?>
<!DOCTYPE svg PUBLIC "-//W3C//DTD SVG 20010904//EN"
 "http://www.w3.org/TR/2001/REC-SVG-20010904/DTD/svg10.dtd">
<svg version="1.0" xmlns="http://www.w3.org/2000/svg"
 width="787.000000pt" height="277.000000pt" viewBox="0 0 787.000000 277.000000"
 preserveAspectRatio="xMidYMid meet">

<g transform="translate(0.000000,277.000000) scale(0.100000,-0.100000)"
fill="white" stroke="none">
<path d="M4205 2733 c-147 -13 -326 -63 -450 -125 -106 -54 -156 -89 -239
-167 -160 -152 -246 -354 -246 -576 l0 -85 36 0 c27 0 37 -5 41 -19 7 -27 24
-32 128 -37 118 -7 157 -16 295 -72 106 -42 122 -46 200 -46 75 0 97 5 190 41
155 60 233 75 385 75 210 -1 357 -49 473 -157 35 -32 61 -61 60 -65 -2 -4 -35
-34 -74 -68 -79 -67 -152 -158 -194 -242 -83 -166 -81 -429 4 -599 59 -115
182 -242 303 -312 49 -28 54 -29 81 -15 63 32 176 184 225 301 60 144 62 169
62 770 0 619 -1 633 -75 792 -48 104 -86 158 -174 251 -250 264 -621 392
-1031 355z "/>
<path fill="#d40d0d" d="M4396 2494 c-173 -34 -342 -157 -456 -330 -65 -100 -94 -195 -95
-309 l0 -90 63 2 c72 2 164 30 239 73 120 69 248 220 297 352 40 107 60 307
31 314 -5 1 -41 -4 -79 -12z"/>
<path fill="#d40d0d" d="M146 2684 c-8 -20 -8 -587 0 -608 4 -9 18 -16 34 -16 19 0 35 -9 48
-27 l20 -28 307 0 c292 0 307 1 321 19 11 16 14 74 14 303 l0 284 -30 17 c-18
10 -30 27 -32 42 l-3 25 -336 3 c-301 2 -337 1 -343 -14z"/>
<path d="M1110 2381 l0 -321 29 0 c20 0 35 -8 49 -27 l20 -28 560 -5 c641 -6
593 2 645 -100 69 -136 10 -302 -132 -373 -46 -22 -49 -22 -608 -25 l-563 -3
0 -704 0 -705 25 0 c15 0 36 -11 51 -28 l26 -27 300 -3 c259 -2 303 -1 324 13
l24 15 0 359 c0 371 4 415 41 424 20 5 27 -3 419 -547 102 -142 151 -202 172
-210 15 -6 28 -14 28 -19 0 -4 16 -15 35 -23 28 -11 103 -14 398 -14 380 0
409 3 394 43 -3 9 -146 193 -316 410 -218 276 -311 402 -311 420 0 20 14 32
78 69 150 88 247 203 308 368 50 132 68 242 68 415 -1 287 -69 467 -248 654
-128 132 -257 208 -441 258 l-100 27 -637 4 -638 3 0 -320z "/>
<path d="M5640 1396 l0 -1303 40 -7 c26 -4 40 -11 40 -21 0 -30 52 -35 336
-35 l285 0 25 25 25 25 -4 523 c-3 445 -6 535 -21 611 -9 48 -16 90 -14 92 2
1 25 -45 51 -103 26 -58 144 -277 264 -487 119 -209 247 -436 286 -503 58
-103 73 -123 98 -128 16 -4 29 -11 29 -16 0 -4 13 -15 30 -24 44 -23 605 -22
638 1 l22 15 0 1273 c0 1220 -1 1274 -18 1289 -10 10 -24 17 -30 17 -6 0 -12
12 -14 28 l-3 27 -337 3 -338 2 0 -590 c0 -372 4 -617 11 -660 16 -108 7 -111
-33 -13 -56 137 -629 1154 -678 1203 -22 22 -40 45 -40 50 0 6 -115 10 -325
10 l-325 0 0 -1304z "/>
<path d="M145 1478 c-3 -13 -4 -329 -3 -703 l3 -679 33 -7 c18 -4 43 -18 57
-33 l24 -26 296 0 c282 0 296 1 315 20 20 20 20 33 20 679 0 363 -3 667 -6
676 -4 9 -17 20 -29 25 -14 5 -25 20 -28 39 l-6 31 -336 0 -335 0 -5 -22z
"/>
<path fill="#d40d0d" d="M3681 1214 c-29 -24 -31 -31 -31 -89 l0 -64 -40 -12 -41 -12 -57 56
-58 57 -92 0 -92 0 0 -155 c0 -175 15 -271 59 -377 122 -291 469 -537 850
-602 108 -18 194 -21 221 -6 24 13 34 66 25 125 -5 37 -17 57 -65 108 -63 68
-68 78 -57 120 8 29 39 47 83 47 37 0 78 25 92 55 19 42 15 135 -8 173 -11 17
-24 32 -30 32 -5 0 -16 13 -24 28 -16 31 -53 52 -91 52 -33 0 -32 21 5 72 50
68 43 94 -47 189 -88 91 -102 101 -150 101 -27 0 -44 -9 -72 -36 -20 -20 -42
-36 -48 -36 -6 0 -13 18 -17 41 -4 27 -18 51 -41 75 -19 19 -35 39 -35 44 0
22 -61 40 -134 40 -66 0 -78 -3 -105 -26z m172 -405 c83 -23 148 -112 148
-204 0 -91 -65 -181 -148 -204 -33 -9 -42 -7 -81 15 -24 14 -77 58 -118 96
-66 63 -74 75 -74 107 1 100 100 198 205 200 17 1 47 -4 68 -10z"/>
</g>
</svg>
